<svg xmlns="http://www.w3.org/2000/svg" width="301" height="40" viewBox="0 0 301 40"><g transform="translate(1 2)"><rect width="301" height="40" rx="20" transform="translate(-1 -2)" fill="rgba(255,255,255,0.15)"/><text transform="translate(50 10)" fill="#fff" font-size="15" font-family="AvenirLTStd-Medium, Avenir LT Std" font-weight="500"><tspan x="0" y="14">Sound: ON</tspan></text><g transform="translate(16 6)"><path d="M11,17.54h0V15.48A7,7,0,0,0,11,2.06V0a8.994,8.994,0,0,1,0,17.54Zm-2-.77,0,0-5-5H0v-6H4l5-5v16Zm2-3.98V4.74a4.49,4.49,0,0,1,0,8.049Z" transform="translate(3 3.23)" fill="#ffc400"/><path d="M0,0H24V24H0Z" fill="none"/></g></g><line y2="20" transform="translate(144.5 10.5)" fill="none" stroke="rgba(255,255,255,0.4)" stroke-width="1"/><g transform="translate(140 2)"><text transform="translate(47 23)" fill="#fff" font-size="15" font-family="AvenirLTStd-Medium, Avenir LT Std" font-weight="500"><tspan x="0" y="0">Hide interface</tspan></text><g transform="translate(13 6)"><path d="M0,0H24V24H0Z" fill="none"/><path d="M17,6H7A6,6,0,0,0,7,18H17A6,6,0,0,0,17,6Zm0,10H7A4,4,0,0,1,7,8H17a4,4,0,0,1,0,8ZM7,9a3,3,0,1,0,3,3A3,3,0,0,0,7,9Z" fill="#fff"/></g></g></svg>